<svg xmlns="http://www.w3.org/2000/svg" viewBox="0 0 630 430" class="svg-logo" width="90" height="90" style="height: auto;"><rect rx="0" ry="0" width="100%" height="100%" fill="rgba(0, 0, 0, 1)"></rect><g data-element="wrapper" transform="translate(-748.2398986816427 -494.5001007080091) scale(3.300000000000006)"><g><g data-element="icon" transform="scale(0.14166807896644476) translate(1974.28715792947 1217.6319200080163)"><path id="color_x5F_1_12_" d="M300,0.003L40.195,150.004v299.992L300,599.997l259.805-150.001V150.004L300,0.003z M529.36,155.859    l-57.321,33.094L300,89.624l-172.034,99.329l-57.325-33.094L300,23.441L529.36,155.859z M300,486.933l-151.74-87.607l57.321-33.094    L300,420.745l94.42-54.514l57.325,33.094L300,486.933z M461.894,381.745l-57.323-33.093V239.625l-94.423-54.516v-66.188    l151.745,87.607V381.745z M300,202.688l74.126,42.793L300,288.281l-74.126-42.8L300,202.688z M215.726,263.062l74.126,42.798v85.588    l-74.126-42.792V263.062z M310.148,305.86l74.126-42.798v85.594l-74.126,42.792V305.86z M289.852,185.109l-94.423,54.516v109.027    l-57.318,33.092V206.529l151.74-87.607V185.109z M60.492,173.44l57.323,33.093v198.648l172.037,99.331V570.7L60.492,438.282V173.44z     M310.148,570.7v-66.188l172.042-99.331V206.533l57.318-33.092v264.841L310.148,570.7z" fill="rgba(244, 244, 244, 1)"></path></g><text transform="translate(271 215)" fill="rgba(244, 244, 244, 1)" ></text></g></g></svg>